<?xml version="1.0" standalone="no"?>
<!DOCTYPE svg PUBLIC "-//W3C//DTD SVG 20010904//EN"
 "http://www.w3.org/TR/2001/REC-SVG-20010904/DTD/svg10.dtd">
<svg version="1.0" xmlns="http://www.w3.org/2000/svg"
 width="200.000000pt" height="200.000000pt" viewBox="0 0 200.000000 200.000000"
 preserveAspectRatio="xMidYMid meet">

<g transform="translate(0.000000,200.000000) scale(0.100000,-0.100000)"
fill="#000000" stroke="none">
<path d="M630 1823 c-8 -3 -108 -98 -222 -211 l-208 -207 57 -57 58 -58 132
132 133 133 0 -653 0 -653 78 3 77 3 3 645 2 645 128 -128 127 -127 58 58 57
57 -208 207 c-199 199 -233 226 -272 211z"/>
<path d="M1267 1743 c-4 -3 -7 -295 -7 -647 l0 -641 -128 128 -127 127 -58
-58 -57 -57 209 -209 c184 -184 213 -209 241 -209 28 0 57 25 243 211 l212
212 -55 55 -55 55 -132 -132 -133 -133 0 653 0 652 -73 0 c-41 0 -77 -3 -80
-7z"/>
</g>
</svg>
