<svg width="17" height="17" viewBox="0 0 17 17" fill="none" xmlns="http://www.w3.org/2000/svg">
<path d="M8.14585 15.4062C4.14377 15.4062 0.885437 12.1479 0.885437 8.14582C0.885437 4.14374 4.14377 0.885406 8.14585 0.885406C12.1479 0.885406 15.4063 4.14374 15.4063 8.14582C15.4063 12.1479 12.1479 15.4062 8.14585 15.4062ZM8.14585 1.94791C4.7246 1.94791 1.94794 4.73166 1.94794 8.14582C1.94794 11.56 4.7246 14.3437 8.14585 14.3437C11.5671 14.3437 14.3438 11.56 14.3438 8.14582C14.3438 4.73166 11.5671 1.94791 8.14585 1.94791ZM15.5834 16.1153C15.4488 16.1153 15.3142 16.0657 15.2079 15.9594L13.7913 14.5428C13.6925 14.4428 13.6371 14.3079 13.6371 14.1674C13.6371 14.0268 13.6925 13.8919 13.7913 13.7919C13.9967 13.5865 14.3367 13.5865 14.5421 13.7919L15.9588 15.2086C16.1642 15.414 16.1642 15.754 15.9588 15.9594C15.8525 16.0657 15.7179 16.1153 15.5834 16.1153Z" fill="black"/>
</svg>
