<svg width="36" height="36" viewBox="0 0 36 36" fill="none" xmlns="http://www.w3.org/2000/svg">
<path d="M2.25 29.25C2.25 29.5484 2.36853 29.8345 2.5795 30.0455C2.79048 30.2565 3.07663 30.375 3.375 30.375H32.625C32.9234 30.375 33.2095 30.2565 33.4205 30.0455C33.6315 29.8345 33.75 29.5484 33.75 29.25V15.6094H2.25V29.25ZM6.89062 19.5469C6.89062 19.3977 6.94989 19.2546 7.05538 19.1491C7.16087 19.0436 7.30394 18.9844 7.45312 18.9844H13.9219C14.0711 18.9844 14.2141 19.0436 14.3196 19.1491C14.4251 19.2546 14.4844 19.3977 14.4844 19.5469V24.0469C14.4844 24.1961 14.4251 24.3391 14.3196 24.4446C14.2141 24.5501 14.0711 24.6094 13.9219 24.6094H7.45312C7.30394 24.6094 7.16087 24.5501 7.05538 24.4446C6.94989 24.3391 6.89062 24.1961 6.89062 24.0469V19.5469ZM32.625 5.625H3.375C3.07663 5.625 2.79048 5.74353 2.5795 5.95451C2.36853 6.16548 2.25 6.45163 2.25 6.75V11.3906H33.75V6.75C33.75 6.45163 33.6315 6.16548 33.4205 5.95451C33.2095 5.74353 32.9234 5.625 32.625 5.625Z" fill="black"/>
</svg>
