<?xml version="1.0" standalone="no"?>
<!DOCTYPE svg PUBLIC "-//W3C//DTD SVG 20010904//EN"
 "http://www.w3.org/TR/2001/REC-SVG-20010904/DTD/svg10.dtd">
<svg version="1.0" xmlns="http://www.w3.org/2000/svg"
 width="512.000000pt" height="512.000000pt" viewBox="0 0 512.000000 512.000000"
 preserveAspectRatio="xMidYMid meet">

<g transform="translate(0.000000,512.000000) scale(0.100000,-0.100000)"
fill="#000000" stroke="none">
<path d="M3477 4900 c-32 -4 -77 -16 -100 -26 -80 -35 -3182 -1845 -3227
-1883 -57 -48 -93 -100 -122 -176 -31 -80 -31 -216 -1 -291 20 -52 279 -510
311 -552 10 -13 35 -27 56 -32 33 -7 49 -4 110 25 98 46 148 58 241 58 219 0
424 -142 495 -344 12 -34 11 -40 -26 -110 -46 -87 -127 -173 -205 -217 -60
-34 -190 -72 -246 -72 -19 0 -47 -7 -63 -15 -57 -30 -60 -45 -60 -363 0 -159
5 -314 10 -343 33 -173 182 -314 362 -339 83 -13 3653 -13 3736 0 180 25 329
166 362 339 5 29 10 184 10 343 0 318 -3 333 -60 363 -16 8 -46 15 -67 15
-119 1 -255 62 -353 160 -114 114 -167 251 -157 405 10 140 58 245 159 345 85
85 193 137 317 152 80 10 100 16 125 39 l31 27 3 305 c2 241 0 319 -12 369
-34 146 -137 259 -284 309 -51 18 -89 19 -493 19 l-438 0 -21 58 c-30 80 -37
190 -16 272 37 143 101 237 220 322 132 94 132 98 -41 402 -76 132 -155 262
-176 289 -85 108 -236 166 -380 147z m174 -245 c34 -24 64 -67 155 -225 62
-107 113 -200 114 -205 0 -6 -20 -27 -44 -48 -90 -75 -177 -211 -218 -341 -35
-110 -36 -284 -1 -408 4 -17 -57 -18 -1183 -18 -727 0 -1184 4 -1178 9 12 12
2120 1240 2159 1258 18 8 54 12 92 10 50 -2 71 -9 104 -32z m-1731 -1585 c0
-141 9 -176 52 -197 49 -25 93 -19 129 16 l29 29 0 141 0 141 1303 0 c1241 0
1304 -1 1342 -19 22 -10 53 -31 69 -47 56 -57 60 -77 64 -339 l4 -240 -74 -18
c-206 -47 -396 -199 -491 -391 -59 -120 -72 -181 -72 -341 1 -131 3 -146 32
-228 39 -111 82 -182 162 -269 103 -112 217 -180 362 -217 l74 -19 0 -243 c0
-242 0 -244 -25 -289 -14 -24 -45 -58 -68 -75 l-44 -30 -1319 -3 -1319 -2 0
109 c0 103 -2 111 -26 140 -32 38 -80 49 -123 27 -49 -26 -61 -61 -61 -176 l0
-101 -464 3 -464 3 -44 30 c-23 17 -54 51 -68 75 -25 45 -25 47 -25 289 l0
243 74 19 c145 37 259 105 362 217 81 88 123 159 161 269 37 106 48 259 28
369 -52 288 -277 525 -559 591 l-71 17 0 221 c0 125 5 237 11 260 17 63 56
112 112 140 l51 25 448 0 448 0 0 -130z m-1244 -690 c25 -22 46 -29 95 -35
126 -13 228 -53 308 -119 45 -38 123 -127 117 -134 -3 -2 -28 13 -58 32 -164
112 -406 144 -602 82 l-76 -24 -39 67 c-122 209 -193 340 -202 374 -19 70 15
166 73 211 18 13 103 65 188 114 l155 90 5 -315 5 -315 31 -28z"/>
<path d="M2762 2739 c-184 -91 -257 -396 -151 -625 35 -75 124 -159 189 -178
67 -20 93 -20 157 -1 67 20 140 86 182 164 150 282 -1 670 -260 671 -42 0 -71
-7 -117 -31z m161 -206 c14 -16 33 -46 43 -68 20 -48 22 -162 5 -224 -12 -43
-67 -111 -89 -111 -22 0 -71 52 -87 92 -24 58 -24 189 -1 243 20 48 63 95 86
95 9 0 28 -12 43 -27z"/>
<path d="M3885 2748 c-25 -20 -1262 -1660 -1306 -1731 -10 -18 -19 -43 -19
-57 0 -40 35 -87 73 -99 77 -26 50 -57 750 876 354 473 649 869 656 880 51 96
-69 198 -154 131z"/>
<path d="M2010 2423 c-36 -10 -63 -29 -76 -55 -17 -32 -20 -261 -4 -302 26
-68 122 -83 173 -26 27 30 27 31 27 175 0 135 -1 145 -22 170 -24 26 -72 45
-98 38z"/>
<path d="M3690 1701 c-161 -32 -272 -204 -272 -421 0 -242 136 -423 317 -422
75 0 124 21 184 77 85 80 131 200 131 345 0 147 -47 269 -134 347 -73 65 -147
89 -226 74z m94 -241 c31 -38 56 -117 56 -180 0 -102 -55 -210 -106 -210 -109
0 -143 292 -47 392 35 36 65 35 97 -2z"/>
<path d="M1958 1541 l-33 -29 0 -152 0 -152 33 -29 c46 -41 99 -40 141 2 l31
31 0 148 0 148 -31 31 c-42 42 -95 43 -141 2z"/>
</g>
</svg>
