<svg width="683" height="683" viewBox="0 0 683 683" fill="none" xmlns="http://www.w3.org/2000/svg">
<path d="M411.674 3.7717L411.699 3.76337C415.562 2.47557 420.67 2.07393 425.843 2.5251C431.011 2.97592 436.041 4.26056 439.748 6.17619L439.76 6.18227L439.772 6.18819C440.743 6.67368 442.378 7.828 444.889 9.929C447.361 11.997 450.566 14.8836 454.646 18.7226C462.804 26.3986 474.384 37.812 490.449 53.944L490.452 53.9469L533.734 97.2287L525.756 105.548L525.75 105.555C522.65 108.818 511.526 120.653 497.075 136.029C487.886 145.806 477.351 157.014 466.677 168.361L411.674 3.7717ZM411.674 3.7717L411.649 3.77936M411.674 3.7717L411.649 3.77936M411.649 3.77936C408.893 4.61816 403.651 7.53012 400.269 9.99754M411.649 3.77936L400.269 9.99754M400.269 9.99754C399.919 10.2718 398.853 11.2404 397.035 12.9593C395.233 14.664 392.777 17.0231 389.742 19.9647C383.672 25.8468 375.302 34.0424 365.237 43.9575C345.108 63.7865 318.212 90.4826 289.415 119.279L400.269 9.99754ZM417.403 220.666L466.676 168.362L289.414 119.28L188.157 220.666H300.8H417.403Z" stroke="black" stroke-width="4"/>
<path d="M578.986 142.48L564.716 128.332L532.124 162.969C519.267 176.652 505.456 191.291 496.016 201.296C491.751 205.816 488.379 209.39 486.389 211.503L486.389 211.503L486.385 211.508L477.733 220.646L504.258 220.533L504.258 220.533L534.463 220.403L563.874 189.031L563.875 189.03C572.138 180.234 579.668 172.138 585.164 166.192C587.913 163.218 590.152 160.784 591.719 159.069C592.313 158.419 592.81 157.874 593.2 157.442C593.156 157.39 593.111 157.335 593.063 157.279C592.33 156.407 591.234 155.185 589.85 153.693C587.089 150.717 583.242 146.737 578.989 142.484C578.988 142.482 578.987 142.481 578.986 142.48Z" stroke="black" stroke-width="4"/>
<path d="M608.928 205.098L608.923 205.103L594.776 220.128L622.845 220.933C622.847 220.933 622.849 220.933 622.851 220.933C631.805 221.134 640.463 221.501 647.207 221.92C650.579 222.129 653.485 222.351 655.717 222.573C657.109 222.712 658.334 222.858 659.26 223.019C658.785 222.521 658.273 221.987 657.727 221.421C654.139 217.7 649.115 212.609 643.519 207.013L624.715 188.209L608.928 205.098Z" stroke="black" stroke-width="4"/>
<path d="M32.5125 266.097L32.5268 266.094L32.5288 266.094C32.5186 266.096 32.5131 266.097 32.5131 266.098C32.5134 266.1 32.6272 266.086 32.9436 266.069C33.2855 266.049 33.7634 266.03 34.3807 266.01C35.6129 265.971 37.3586 265.933 39.5964 265.896C44.0696 265.822 50.4789 265.752 58.6136 265.687C74.8816 265.558 98.0319 265.45 126.356 265.367C183.003 265.2 260.333 265.133 344.665 265.2H344.666L650.898 265.333L656.627 267.948C656.63 267.95 656.633 267.951 656.636 267.953M32.5125 266.097L656.636 267.953M32.5125 266.097C21.4873 268.227 10.6483 277.081 5.28387 288.702C5.28339 288.703 5.28291 288.704 5.28242 288.705L2.6665 294.435V472.667V650.892L5.94343 657.95C5.94404 657.951 5.94466 657.952 5.94527 657.954C9.88876 666.347 16.6284 673.205 24.7384 677.133L24.7497 677.139L24.7609 677.144L30.472 680H341.333H652.194L657.905 677.144L657.917 677.139C665.902 673.21 672.779 666.214 676.723 657.816L676.725 657.812L680 650.884V472.667V294.465L676.472 287.283M32.5125 266.097L676.472 287.283M656.636 267.953C665.149 271.895 672.409 279.03 676.472 287.283M656.636 267.953L676.472 287.283M185.695 342.817L185.676 342.81C183.317 341.866 179.927 341.367 172.762 341.085C165.529 340.8 154.186 340.733 135.726 340.8C120.058 340.8 108.598 340.933 100.645 341.218C96.67 341.36 93.546 341.541 91.1992 341.765C88.938 341.981 87.1957 342.253 86.1148 342.654C82.5908 343.906 78.7765 346.445 75.4354 349.424C72.0803 352.416 69.0465 355.992 67.1746 359.447L67.1684 359.459L67.1624 359.47C66.4379 360.85 65.8303 362.119 65.362 363.783C64.9 365.426 64.5945 367.378 64.3729 370.14C63.9326 375.626 63.7995 384.682 63.6 401.576C63.4665 412.923 63.4996 422.317 63.6839 429.319C63.776 432.819 63.9062 435.737 64.074 438.01C64.2377 440.226 64.4458 441.974 64.7336 443.047C67.0306 451.795 74.382 460.356 82.9591 464.716L185.695 342.817ZM185.695 342.817L185.713 342.825C194.008 346.34 199.271 351.187 203.744 359.154L203.748 359.162L207.748 366.362L208 366.815V367.333V404.667V442V442.518L207.748 442.971L203.751 450.166C203.75 450.168 203.749 450.169 203.748 450.171C203.748 450.171 203.748 450.171 203.748 450.171C202.624 452.208 201.131 454.426 199.629 456.36C198.15 458.264 196.557 460.029 195.215 461.055L195.207 461.061C192.88 462.823 190.891 464.282 188.487 465.389C186.058 466.509 183.309 467.227 179.444 467.702C171.822 468.637 159.391 468.667 135.6 468.667H91.1998H90.72L90.2925 468.449L82.9604 464.716L185.695 342.817ZM163.333 596V598H161.333H112H62.6665H60.6665V596V576V556V554H62.6665H112H161.333H163.333V556V576V596ZM316.667 596V598H314.667H265.333H216H214V596V576V556V554H216H265.333H314.667H316.667V556V576V596ZM468.667 596V598H466.667H417.333H368H366V596V576V556V554H368H417.333H466.667H468.667V556V576V596ZM622 596V598H620H570.667H521.333H519.333V596V576V556V554H521.333H570.667H620H622V556V576V596Z" stroke="black" stroke-width="4"/>
<path d="M107.333 404.666V424.666H136H164.666V404.666V384.666H136H107.333V404.666Z" stroke="black" stroke-width="4"/>
</svg>
